# xmcd
#
# Track frame offsets:
#	150
#	10887
#	24930
#	37202
#	50814
#	64943
#	79227
#	92959
#	107694
#	120662
#	133647
#	147232
#	155624
#	169562
#	184927
#	200729
#	214423
#
# Disc length: 2999 seconds
#
# Revision: 0
# Processed by: cddbd v1.5.1PL0 Copyright (c) Steve Scherf et al.
# Submitted via: dBpowerAMP V4.0
#
DISCID=fd0bb511
DTITLE=Frank Sinatra - Sings New York
DYEAR=1900
DGENRE=Blues
TTITLE0=Night and day
TTITLE1=Beguin the beguine
TTITLE2=Saturday night is hte loneliest of the week
TTITLE3=All the things you are
TTITLE4=Stardust
TTITLE5=Fools rush in
TTITLE6=I believe
TTITLE7=Blue skies
TTITLE8=How about you
TTITLE9=It started all over again
TTITLE10=Dream
TTITLE11=On the sunny side of the street
TTITLE12=I´ll be seeing you
TTITLE13=Laura
TTITLE14=The one I love belongs to somebody else
TTITLE15=Light a candle in the chqapel
TTITLE16=Marie
EXTD=
EXTT0=
EXTT1=
EXTT2=
EXTT3=
EXTT4=
EXTT5=
EXTT6=
EXTT7=
EXTT8=
EXTT9=
EXTT10=
EXTT11=
EXTT12=
EXTT13=
EXTT14=
EXTT15=
EXTT16=
PLAYORDER=
